<?xml version="1.0" encoding="utf-8"?>
<!-- Generator: Adobe Illustrator 21.1.0, SVG Export Plug-In . SVG Version: 6.00 Build 0)  -->
<svg version="1.1" id="Capa_1" xmlns="http://www.w3.org/2000/svg" xmlns:xlink="http://www.w3.org/1999/xlink" x="0px" y="0px"
	 viewBox="0 0 95.8 105.9" style="enable-background:new 0 0 95.8 105.9;" xml:space="preserve">
<style type="text/css">
	.st0{fill:#F24C04;}
	.st1{fill:#FFFFFF;}
</style>
<g>
	<path class="st0" d="M85.7,105.9H10.1C4.5,105.9,0,101.4,0,95.8l0.1-85.8C0.1,4.5,4.6,0,10.2,0h75.6c5.5,0,10.1,4.5,10.1,10.1
		l-0.1,85.8C95.7,101.4,91.2,105.9,85.7,105.9z"/>
	<g>
		<path class="st1" d="M64.6,25.9l1-0.6l-6.7-8.1l-0.6,0.2c-6.5,1.8-12.6,7.1-18,15.7c-5.4,8.5-8.2,17.1-8.2,25.4
			c0,20.1,7.3,30.3,21.7,30.3c5.6,0,10.2-2.2,13.9-6.5c3.6-4.3,5.4-9.9,5.4-16.7c0-6.9-1.8-12.5-5.3-16.6c-3.6-4.1-8.3-6.2-14.2-6.2
			c-1.6,0-3.5,0.4-5.5,1.3c1.3-3,3.2-6,5.8-9C57,31.3,60.6,28.2,64.6,25.9z M53.1,54.9c2.1,0,3.9,0.9,5.2,2.9c1.4,2,2.1,4.8,2.1,8.3
			c0,3.4-0.7,6.1-2,7.9c-1.3,1.8-3,2.7-5.2,2.7c-5.5,0-8.2-3.7-8.2-11.3C44.9,58.2,47.5,54.9,53.1,54.9z"/>
		<path class="st1" d="M22.9,17.5c-4.5,6.1-10.6,11.2-18.3,15.3l-1.7,0.8v12.5l13.5-7.4v47.1H29V17.1h-5.8L22.9,17.5z"/>
		<polygon class="st1" points="93,49.5 84.4,49.5 84.4,41.1 80,41.1 80,49.5 71.5,49.5 71.5,53.9 80,53.9 80,62.4 84.4,62.4 
			84.4,53.9 93,53.9 		"/>
	</g>
</g>
</svg>
